# ProBuilder 5.0.3
# https://unity3d.com/unity/features/worldbuilding/probuilder
# 07.02.2023 20:35:29

mtllib ./wall_mesh1.mtl
o wall mesh1

g Cube
v 0.5 0 0
v -4.5 0 0
v 0.5 7 -1.554312E-16
v -4.5 7 -1.554312E-16
v -4.5 -2.220446E-17 -1
v -4.5 7 -1
v 0.5 -2.220446E-17 -1
v 0.5 7 -1

vt 0.5 0
vt -4.5 0
vt 0.5 7
vt -4.5 7
vt 0 0
vt -1 0
vt 0 7
vt -1 7
vt 4.5 0
vt -0.5 0
vt 4.5 7
vt -0.5 7
vt 1 0
vt 1 7
vt -0.5 -1
vt 4.5 -1
vt 0.5 -1
vt -4.5 -1

vn 0 2.220446E-17 1
vn -1 0 0
vn 0 -2.220446E-17 -1
vn 1 0 0
vn 0 1 -2.220446E-17
vn 0 -1 2.220446E-17

usemtl Collider
f 3/3/1 4/4/1 2/2/1 1/1/1
f 4/7/2 6/8/2 5/6/2 2/5/2
f 6/11/3 8/12/3 7/10/3 5/9/3
f 8/14/4 3/7/4 1/5/4 7/13/4
f 8/15/5 6/16/5 4/9/5 3/10/5
f 1/1/6 2/2/6 5/18/6 7/17/6

